ModelForces
version=1
nRows=5
nColumns=131
inDegrees=no

This file contains the forces exerted on a model during a simulation.

A force is a generalized force, meaning that it can be either a force (N) or a torque (Nm).

Units are S.I. units (second, meters, Newtons, ...)
Angles are in degrees.

endheader
time	femur_lat_meniscii_l.femur_lat_l.force.X	femur_lat_meniscii_l.femur_lat_l.force.Y	femur_lat_meniscii_l.femur_lat_l.force.Z	femur_lat_meniscii_l.femur_lat_l.torque.X	femur_lat_meniscii_l.femur_lat_l.torque.Y	femur_lat_meniscii_l.femur_lat_l.torque.Z	femur_lat_meniscii_l.meniscus_lat_l.force.X	femur_lat_meniscii_l.meniscus_lat_l.force.Y	femur_lat_meniscii_l.meniscus_lat_l.force.Z	femur_lat_meniscii_l.meniscus_lat_l.torque.X	femur_lat_meniscii_l.meniscus_lat_l.torque.Y	femur_lat_meniscii_l.meniscus_lat_l.torque.Z	femur_med_meniscii_l.femur_med_l.force.X	femur_med_meniscii_l.femur_med_l.force.Y	femur_med_meniscii_l.femur_med_l.force.Z	femur_med_meniscii_l.femur_med_l.torque.X	femur_med_meniscii_l.femur_med_l.torque.Y	femur_med_meniscii_l.femur_med_l.torque.Z	femur_med_meniscii_l.meniscus_med_l.force.X	femur_med_meniscii_l.meniscus_med_l.force.Y	femur_med_meniscii_l.meniscus_med_l.force.Z	femur_med_meniscii_l.meniscus_med_l.torque.X	femur_med_meniscii_l.meniscus_med_l.torque.Y	femur_med_meniscii_l.meniscus_med_l.torque.Z	femur_lat_meniscii_r.femur_lat_r.force.X	femur_lat_meniscii_r.femur_lat_r.force.Y	femur_lat_meniscii_r.femur_lat_r.force.Z	femur_lat_meniscii_r.femur_lat_r.torque.X	femur_lat_meniscii_r.femur_lat_r.torque.Y	femur_lat_meniscii_r.femur_lat_r.torque.Z	femur_lat_meniscii_r.meniscus_lat_r.force.X	femur_lat_meniscii_r.meniscus_lat_r.force.Y	femur_lat_meniscii_r.meniscus_lat_r.force.Z	femur_lat_meniscii_r.meniscus_lat_r.torque.X	femur_lat_meniscii_r.meniscus_lat_r.torque.Y	femur_lat_meniscii_r.meniscus_lat_r.torque.Z	femur_med_meniscii_r.femur_med_r.force.X	femur_med_meniscii_r.femur_med_r.force.Y	femur_med_meniscii_r.femur_med_r.force.Z	femur_med_meniscii_r.femur_med_r.torque.X	femur_med_meniscii_r.femur_med_r.torque.Y	femur_med_meniscii_r.femur_med_r.torque.Z	femur_med_meniscii_r.meniscus_med_r.force.X	femur_med_meniscii_r.meniscus_med_r.force.Y	femur_med_meniscii_r.meniscus_med_r.force.Z	femur_med_meniscii_r.meniscus_med_r.torque.X	femur_med_meniscii_r.meniscus_med_r.torque.Y	femur_med_meniscii_r.meniscus_med_r.torque.Z	femur_med_tibia_l.tibia_upper_l.force.X	femur_med_tibia_l.tibia_upper_l.force.Y	femur_med_tibia_l.tibia_upper_l.force.Z	femur_med_tibia_l.tibia_upper_l.torque.X	femur_med_tibia_l.tibia_upper_l.torque.Y	femur_med_tibia_l.tibia_upper_l.torque.Z	femur_med_tibia_l.femur_med_l.force.X	femur_med_tibia_l.femur_med_l.force.Y	femur_med_tibia_l.femur_med_l.force.Z	femur_med_tibia_l.femur_med_l.torque.X	femur_med_tibia_l.femur_med_l.torque.Y	femur_med_tibia_l.femur_med_l.torque.Z	femur_lat_tibia_l.tibia_upper_l.force.X	femur_lat_tibia_l.tibia_upper_l.force.Y	femur_lat_tibia_l.tibia_upper_l.force.Z	femur_lat_tibia_l.tibia_upper_l.torque.X	femur_lat_tibia_l.tibia_upper_l.torque.Y	femur_lat_tibia_l.tibia_upper_l.torque.Z	femur_lat_tibia_l.femur_lat_l.force.X	femur_lat_tibia_l.femur_lat_l.force.Y	femur_lat_tibia_l.femur_lat_l.force.Z	femur_lat_tibia_l.femur_lat_l.torque.X	femur_lat_tibia_l.femur_lat_l.torque.Y	femur_lat_tibia_l.femur_lat_l.torque.Z	femur_med_tibia_r.tibia_upper_r.force.X	femur_med_tibia_r.tibia_upper_r.force.Y	femur_med_tibia_r.tibia_upper_r.force.Z	femur_med_tibia_r.tibia_upper_r.torque.X	femur_med_tibia_r.tibia_upper_r.torque.Y	femur_med_tibia_r.tibia_upper_r.torque.Z	femur_med_tibia_r.femur_med_r.force.X	femur_med_tibia_r.femur_med_r.force.Y	femur_med_tibia_r.femur_med_r.force.Z	femur_med_tibia_r.femur_med_r.torque.X	femur_med_tibia_r.femur_med_r.torque.Y	femur_med_tibia_r.femur_med_r.torque.Z	femur_lat_tibia_r.tibia_upper_r.force.X	femur_lat_tibia_r.tibia_upper_r.force.Y	femur_lat_tibia_r.tibia_upper_r.force.Z	femur_lat_tibia_r.tibia_upper_r.torque.X	femur_lat_tibia_r.tibia_upper_r.torque.Y	femur_lat_tibia_r.tibia_upper_r.torque.Z	femur_lat_tibia_r.femur_lat_r.force.X	femur_lat_tibia_r.femur_lat_r.force.Y	femur_lat_tibia_r.femur_lat_r.force.Z	femur_lat_tibia_r.femur_lat_r.torque.X	femur_lat_tibia_r.femur_lat_r.torque.Y	femur_lat_tibia_r.femur_lat_r.torque.Z	aACL_R	pACL_R	aPCL_R	pPCL_R	aMCL_R	aLCL_R	aPCL_L	pPCL_L	aMCL_L	aLCL_L	ground_prescribedForce_fx	ground_prescribedForce_fy	ground_prescribedForce_fz	ground_prescribedForce_px	ground_prescribedForce_py	ground_prescribedForce_pz	ground_prescribedForce_fx	ground_prescribedForce_fy	ground_prescribedForce_fz	ground_prescribedForce_px	ground_prescribedForce_py	ground_prescribedForce_pz	ground_prescribedForce_fx	ground_prescribedForce_fy	ground_prescribedForce_fz	ground_prescribedForce_px	ground_prescribedForce_py	ground_prescribedForce_pz	ground_prescribedForce_fx	ground_prescribedForce_fy	ground_prescribedForce_fz	ground_prescribedForce_px	ground_prescribedForce_py	ground_prescribedForce_pz
      0.70902223	      2.76307434	     50.99597937	     -9.56042239	      5.21997485	     -0.02578839	      1.48581788	     -2.76307434	    -50.99597937	      9.56042239	     -1.74637766	      0.02558040	     -0.48301696	     -3.31599387	     20.97615968	     -3.40468921	      0.94473225	     -0.02138609	     -1.00501789	      3.31599387	    -20.97615968	      3.40468921	      0.28075727	      0.00368718	     -0.29758878	     -8.72842081	     64.39617250	     -7.57181775	      1.41267358	     -0.18323055	     -3.14090891	      8.72842081	    -64.39617250	      7.57181775	      1.96327278	      0.18953113	     -0.69713217	    -11.75730297	     45.36612101	     -8.60332040	      4.28293150	      0.33897346	     -4.08834279	     11.75730297	    -45.36612101	      8.60332040	     -0.63926926	     -0.31909679	     -0.78627676	      0.00000000	      0.00000000	      0.00000000	      0.00000000	      0.00000000	      0.00000000	      0.00000000	      0.00000000	      0.00000000	      0.00000000	      0.00000000	      0.00000000	      0.00000000	      0.00000000	      0.00000000	      0.00000000	      0.00000000	      0.00000000	      0.00000000	      0.00000000	      0.00000000	      0.00000000	      0.00000000	      0.00000000	      0.00000000	      0.00000000	      0.00000000	      0.00000000	      0.00000000	      0.00000000	      0.00000000	      0.00000000	      0.00000000	      0.00000000	      0.00000000	      0.00000000	      0.00000000	      0.00000000	      0.00000000	      0.00000000	      0.00000000	      0.00000000	      0.00000000	      0.00000000	      0.00000000	      0.00000000	      0.00000000	      0.00000000	      0.00000000	      0.00000000	     58.70000547	     66.16606451	     18.55902111	      4.11974312	      0.00000000	      0.00000000	    116.99866359	      0.00000000	    -27.50000000	      0.00000000	      0.00000000	      0.00000000	     -0.05000000	     -0.50000000	    -27.50000000	      0.00000000	      0.00000000	      0.00000000	     -0.05000000	      0.50000000	    -27.50000000	      0.00000000	      0.00000000	      0.00000000	     -0.10000000	     -0.50000000	    -27.50000000	      0.00000000	      0.00000000	      0.00000000	     -0.10000000	      0.50000000
      0.71545521	      2.76307434	     50.99597937	     -9.56042239	      5.21997485	     -0.02578839	      1.48581788	     -2.76307434	    -50.99597937	      9.56042239	     -1.74637766	      0.02558040	     -0.48301696	     -3.31599387	     20.97615968	     -3.40468921	      0.94473225	     -0.02138609	     -1.00501789	      3.31599387	    -20.97615968	      3.40468921	      0.28075727	      0.00368718	     -0.29758878	     -8.71740167	     64.48720697	     -7.58368451	      1.41516402	     -0.18262763	     -3.13579752	      8.71740167	    -64.48720697	      7.58368451	      1.96634192	      0.18881482	     -0.69861178	    -11.70299584	     45.20291600	     -8.57344621	      4.26753598	      0.33745353	     -4.06850627	     11.70299584	    -45.20291600	      8.57344621	     -0.63632632	     -0.31767592	     -0.78392122	      0.00000000	      0.00000000	      0.00000000	      0.00000000	      0.00000000	      0.00000000	      0.00000000	      0.00000000	      0.00000000	      0.00000000	      0.00000000	      0.00000000	      0.00000000	      0.00000000	      0.00000000	      0.00000000	      0.00000000	      0.00000000	      0.00000000	      0.00000000	      0.00000000	      0.00000000	      0.00000000	      0.00000000	      0.00000000	      0.00000000	      0.00000000	      0.00000000	      0.00000000	      0.00000000	      0.00000000	      0.00000000	      0.00000000	      0.00000000	      0.00000000	      0.00000000	      0.00000000	      0.00000000	      0.00000000	      0.00000000	      0.00000000	      0.00000000	      0.00000000	      0.00000000	      0.00000000	      0.00000000	      0.00000000	      0.00000000	      0.00000000	      0.00000000	     58.60285462	     65.82254663	     18.33531776	      3.85105378	      0.00000000	      0.00000000	    116.99866359	      0.00000000	    -27.50000000	      0.00000000	      0.00000000	      0.00000000	     -0.05000000	     -0.50000000	    -27.50000000	      0.00000000	      0.00000000	      0.00000000	     -0.05000000	      0.50000000	    -27.50000000	      0.00000000	      0.00000000	      0.00000000	     -0.10000000	     -0.50000000	    -27.50000000	      0.00000000	      0.00000000	      0.00000000	     -0.10000000	      0.50000000
      0.72371472	      2.76307434	     50.99597937	     -9.56042239	      5.21997485	     -0.02578839	      1.48581788	     -2.76307434	    -50.99597937	      9.56042239	     -1.74637766	      0.02558040	     -0.48301696	     -3.31599387	     20.97615968	     -3.40468921	      0.94473225	     -0.02138609	     -1.00501789	      3.31599387	    -20.97615968	      3.40468921	      0.28075727	      0.00368718	     -0.29758878	     -8.81724895	     64.83206729	     -7.62889961	      1.42479613	     -0.18512379	     -3.17559242	      8.81724895	    -64.83206729	      7.62889961	      1.97685071	      0.19172460	     -0.69983183	    -11.65442332	     45.10893730	     -8.54194605	      4.25263471	      0.33610534	     -4.04960230	     11.65442332	    -45.10893730	      8.54194605	     -0.63409453	     -0.31638074	     -0.78328278	      0.00000000	      0.00000000	      0.00000000	      0.00000000	      0.00000000	      0.00000000	      0.00000000	      0.00000000	      0.00000000	      0.00000000	      0.00000000	      0.00000000	      0.00000000	      0.00000000	      0.00000000	      0.00000000	      0.00000000	      0.00000000	      0.00000000	      0.00000000	      0.00000000	      0.00000000	      0.00000000	      0.00000000	      0.00000000	      0.00000000	      0.00000000	      0.00000000	      0.00000000	      0.00000000	      0.00000000	      0.00000000	      0.00000000	      0.00000000	      0.00000000	      0.00000000	      0.00000000	      0.00000000	      0.00000000	      0.00000000	      0.00000000	      0.00000000	      0.00000000	      0.00000000	      0.00000000	      0.00000000	      0.00000000	      0.00000000	      0.00000000	      0.00000000	     58.74661762	     66.21867037	     18.54201951	      4.34257520	      0.00000000	      0.00000000	    116.99866359	      0.00000000	    -27.50000000	      0.00000000	      0.00000000	      0.00000000	     -0.05000000	     -0.50000000	    -27.50000000	      0.00000000	      0.00000000	      0.00000000	     -0.05000000	      0.50000000	    -27.50000000	      0.00000000	      0.00000000	      0.00000000	     -0.10000000	     -0.50000000	    -27.50000000	      0.00000000	      0.00000000	      0.00000000	     -0.10000000	      0.50000000
      0.73104881	      2.76307434	     50.99597937	     -9.56042239	      5.21997485	     -0.02578839	      1.48581788	     -2.76307434	    -50.99597937	      9.56042239	     -1.74637766	      0.02558040	     -0.48301696	     -3.31599387	     20.97615968	     -3.40468921	      0.94473225	     -0.02138609	     -1.00501789	      3.31599387	    -20.97615968	      3.40468921	      0.28075727	      0.00368718	     -0.29758878	     -8.86014561	     64.96626832	     -7.66323895	      1.43580524	     -0.18609708	     -3.19293375	      8.86014561	    -64.96626832	      7.66323895	      1.97998565	      0.19273596	     -0.70008093	    -11.55146055	     44.84312735	     -8.47979615	      4.22234487	      0.33335575	     -4.01105206	     11.55146055	    -44.84312735	      8.47979615	     -0.62975289	     -0.31391785	     -0.78010420	      0.00000000	      0.00000000	      0.00000000	      0.00000000	      0.00000000	      0.00000000	      0.00000000	      0.00000000	      0.00000000	      0.00000000	      0.00000000	      0.00000000	      0.00000000	      0.00000000	      0.00000000	      0.00000000	      0.00000000	      0.00000000	      0.00000000	      0.00000000	      0.00000000	      0.00000000	      0.00000000	      0.00000000	      0.00000000	      0.00000000	      0.00000000	      0.00000000	      0.00000000	      0.00000000	      0.00000000	      0.00000000	      0.00000000	      0.00000000	      0.00000000	      0.00000000	      0.00000000	      0.00000000	      0.00000000	      0.00000000	      0.00000000	      0.00000000	      0.00000000	      0.00000000	      0.00000000	      0.00000000	      0.00000000	      0.00000000	      0.00000000	      0.00000000	     58.58681151	     65.66530403	     18.16150474	      3.78221399	      0.00000000	      0.00000000	    116.99866359	      0.00000000	    -27.50000000	      0.00000000	      0.00000000	      0.00000000	     -0.05000000	     -0.50000000	    -27.50000000	      0.00000000	      0.00000000	      0.00000000	     -0.05000000	      0.50000000	    -27.50000000	      0.00000000	      0.00000000	      0.00000000	     -0.10000000	     -0.50000000	    -27.50000000	      0.00000000	      0.00000000	      0.00000000	     -0.10000000	      0.50000000
      0.73838291	      2.76307434	     50.99597937	     -9.56042239	      5.21997485	     -0.02578839	      1.48581788	     -2.76307434	    -50.99597937	      9.56042239	     -1.74637766	      0.02558040	     -0.48301696	     -3.31599387	     20.97615968	     -3.40468921	      0.94473225	     -0.02138609	     -1.00501789	      3.31599387	    -20.97615968	      3.40468921	      0.28075727	      0.00368718	     -0.29758878	     -8.93503350	     65.32194504	     -7.66937494	      1.42867004	     -0.18817055	     -3.22184028	      8.93503350	    -65.32194504	      7.66937494	      1.99176399	      0.19526994	     -0.70259256	    -11.49642157	     44.78509519	     -8.44748926	      4.20802932	      0.33205895	     -3.98859083	     11.49642157	    -44.78509519	      8.44748926	     -0.62848398	     -0.31279126	     -0.78076202	      0.00000000	      0.00000000	      0.00000000	      0.00000000	      0.00000000	      0.00000000	      0.00000000	      0.00000000	      0.00000000	      0.00000000	      0.00000000	      0.00000000	      0.00000000	      0.00000000	      0.00000000	      0.00000000	      0.00000000	      0.00000000	      0.00000000	      0.00000000	      0.00000000	      0.00000000	      0.00000000	      0.00000000	      0.00000000	      0.00000000	      0.00000000	      0.00000000	      0.00000000	      0.00000000	      0.00000000	      0.00000000	      0.00000000	      0.00000000	      0.00000000	      0.00000000	      0.00000000	      0.00000000	      0.00000000	      0.00000000	      0.00000000	      0.00000000	      0.00000000	      0.00000000	      0.00000000	      0.00000000	      0.00000000	      0.00000000	      0.00000000	      0.00000000	     58.81840352	     66.36723286	     18.58482027	      4.51297805	      0.00000000	      0.00000000	    116.99866359	      0.00000000	    -27.50000000	      0.00000000	      0.00000000	      0.00000000	     -0.05000000	     -0.50000000	    -27.50000000	      0.00000000	      0.00000000	      0.00000000	     -0.05000000	      0.50000000	    -27.50000000	      0.00000000	      0.00000000	      0.00000000	     -0.10000000	     -0.50000000	    -27.50000000	      0.00000000	      0.00000000	      0.00000000	     -0.10000000	      0.50000000
